<svg xmlns="http://www.w3.org/2000/svg" viewBox="0 0 70.87 70.87"><defs><style>.cls-1{fill:#ab7971;}.cls-2{fill:#e2d5c5;}</style></defs><g id="Artwork_Layer" data-name="Artwork Layer"><circle class="cls-1" cx="35.44" cy="35.44" r="35.44"/><path class="cls-2" d="M23.69,41.27H21.88l-3.69-5.06-.87,1v4H15.91V29.6h1.41v5.48l4.59-5.48h1.83l-4.63,5.51Z"/><path class="cls-2" d="M56.61,29.6V31H52.72V41.27h-1.4V31H47.44V29.6Z"/><path class="cls-2" d="M35.8,40a1.17,1.17,0,0,0,.46-.31c.09-.1.24-.52.35-.55s.19.07.26.09a.82.82,0,0,0,.27,0,4.51,4.51,0,0,0,.65-.22c.51-.17.72.45,1.2.41.22,0,.22-.17.37-.29a.77.77,0,0,1,.4-.1c.52,0,1,.1,1.55,0a2.55,2.55,0,0,0,1.18-.54A.25.25,0,0,0,42.3,38a7.29,7.29,0,0,1-3.5.14,4,4,0,0,0-1.66-.42,3.31,3.31,0,0,0-1.26.52l-.14.07v-1a1.42,1.42,0,0,1,.38.26.79.79,0,0,0,.76.08,3.64,3.64,0,0,1,1.19-.16c.44,0,.74.46,1.18.16.24-.17.45-.37.7-.52a1.09,1.09,0,0,1,.93-.1c.49.16.69-.39.87-.74l0-.05a.25.25,0,0,0-.39-.31,1.6,1.6,0,0,1-1.51.22,1.72,1.72,0,0,0-1.22.19c-1,.51-1.93-.2-2.9-.31h0v-.81a.54.54,0,0,1,.26.07,3.85,3.85,0,0,0,.84.51,12.11,12.11,0,0,0,2,.21,1.2,1.2,0,0,0,1-.18c.13-.12.21-.28.38-.37a1.5,1.5,0,0,1,.69-.11.26.26,0,0,0,.07-.5,2.63,2.63,0,0,0-1.52,0,2.83,2.83,0,0,1-1.62.18c-.65-.23-1.38-.77-2.09-.61h0a1.79,1.79,0,0,0,.82-.42c.23-.2.36-.16.61,0a4,4,0,0,0,1.95.51.24.24,0,0,0,.2-.38,1.43,1.43,0,0,1,.46,0c.21.05.45.19.67.13s.26-.24.31-.43c.1-.36.52-.29.8-.26a.25.25,0,0,0,.24-.32c-.07-.24-.13-.45.09-.63a2.52,2.52,0,0,0,.35-.3.07.07,0,0,0,0,0,.25.25,0,0,0-.3-.39c-.53.24-.84.74-1.31,1.06a1,1,0,0,1-.36.17,1.69,1.69,0,0,1-.5-.08,1.51,1.51,0,0,0-.86.16,1.52,1.52,0,0,1-.84.15l-.83-.13-.72-.13a3.89,3.89,0,0,1,.89-.12c.5,0,1,0,1.5.08a.25.25,0,0,0,.21-.38c-.05-.11.26-.33.46-.48l0,0h0l.09-.09c.15-.21-.14-.47-.34-.34a2.82,2.82,0,0,1-1.27.51,5.08,5.08,0,0,1-.95-.08l-.64-.09a4.64,4.64,0,0,1,1-.14,5.77,5.77,0,0,0,2.58-.86c.19-.13.14-.49-.13-.47a5.18,5.18,0,0,0-1.15.32,1.24,1.24,0,0,1-.66,0,3.5,3.5,0,0,0-.71-.17,2.48,2.48,0,0,0-1,.21,3.29,3.29,0,0,1-.79.23V31l0,0c.23-.08.48-.14.72-.21a5.17,5.17,0,0,0,1.07-.42A4.52,4.52,0,0,1,39.4,30a.25.25,0,0,0,.06-.49,1.48,1.48,0,0,1-.35-.13c.43-.14.88-.29.88-.81a.26.26,0,0,0-.47-.13c-.28.49-1.19.25-1.64.43s-.86.77-1.35,1.07a1.44,1.44,0,0,1-.79.25v-1a1.67,1.67,0,0,1,.4,0,3.21,3.21,0,0,1,.52.11.25.25,0,0,0,.28-.36,1.58,1.58,0,0,0-1-.66l-.22,0V28a2,2,0,0,1,.85.32c.33.26.61.53,1.06.41a.24.24,0,0,0,.11-.41c-.11-.12-.22-.23-.34-.34a5.05,5.05,0,0,0,.95-.13h.07a.25.25,0,0,0-.07-.49h-.06a20.81,20.81,0,0,1-2.57-.5v-.39a.2.2,0,0,1,.08,0c.1,0,.16,0,.25.08a.68.68,0,0,0,.44.1c.19,0,.22-.17.35-.28s.67-.08.9-.09a.25.25,0,0,0,.13-.47,5,5,0,0,0-1.08-.35,2,2,0,0,0-.88-.1h0a1.73,1.73,0,0,1,.31-.14,1.41,1.41,0,0,1,.95,0,.25.25,0,0,0,.31-.24c0-.25-.25-.44-.47-.49s-.61.2-.89.1L36.6,24a.25.25,0,0,0-.3-.39,1.78,1.78,0,0,1-.56.2c0-.3,0-.61,0-.91v-.05a.25.25,0,0,0-.49-.06,4.86,4.86,0,0,0-.53,1.35.25.25,0,0,0,.25.25l.27,0v.68c-.28.05-.45-.16-.59-.4s-.49-.13-.47.13a1.18,1.18,0,0,0,.41,1,1.24,1.24,0,0,0,.65.14v.4l0,0a.39.39,0,0,1-.53,0,3.13,3.13,0,0,0-.95-.51.25.25,0,0,0-.24.42.77.77,0,0,1,.2.36,3.23,3.23,0,0,1-.69.07c-.27,0-.35.43-.06.49H33l1,.21a3.32,3.32,0,0,0,.7.13c.2,0,.36-.13.55-.16v.13a1.4,1.4,0,0,0-.28.06c-.4.12-.71.43-1.1.57s-.89-.16-1.34,0a.25.25,0,0,0,.13.48h.1c.4,0,.53.37.87.53s.59-.15.91-.26a3.1,3.1,0,0,1,.71-.12v0c-.14.11-.15.27-.2.45-.1.41-.55.23-.83.11a.25.25,0,0,0-.36.28c.07.32-.33,0-.41-.05l-.33-.25a3.49,3.49,0,0,0-.78-.37,6.86,6.86,0,0,0-1.2-.22.25.25,0,0,0-.19.46,5.46,5.46,0,0,0,1,.58l-.21.23a.25.25,0,0,0,.3.39.52.52,0,0,1,.63,0,1,1,0,0,1-.24.16c-.25.12-.1.44.12.47a6,6,0,0,0,2-.47,1.93,1.93,0,0,1,.68,0v.12c-.25.19-.37.47-.72.46a2.32,2.32,0,0,1-.58-.13L33.75,31c-.3-.12-.43.36-.13.48l.22.08.66.27a3.91,3.91,0,0,1-.83.09,5.72,5.72,0,0,1-1.59-.24,5.75,5.75,0,0,1-1.46-.85l-.05,0c-.23-.17-.5.19-.3.39a8.64,8.64,0,0,1,1.11,1.37c.08.14.16.27.23.41s0,.09.06.13h0a.26.26,0,0,0,.46,0,1.3,1.3,0,0,1,.32-.38c.27-.2.39.12.65.2a1,1,0,0,0,.74-.11l-.06.72a.25.25,0,0,0,.43.18,2.33,2.33,0,0,1,1-.68V34a1.2,1.2,0,0,1-.49-.22c-.19-.14-.42.09-.37.28a1.78,1.78,0,0,0,.28.59,2.24,2.24,0,0,1-1.32-.34.25.25,0,0,0-.37.21.6.6,0,0,0-.35-.33l0,0a4.09,4.09,0,0,0-1.5-.3.26.26,0,0,0-.13.47,2.39,2.39,0,0,1,.8.87.25.25,0,0,0,.45-.06c0-.12.21-.24.29-.34l.05-.06a4.13,4.13,0,0,0,.17.45,1.1,1.1,0,0,0,.42.35.25.25,0,0,0,.37-.21,2.68,2.68,0,0,0,0-.4,2.59,2.59,0,0,0,1.46.18c-.17.17-.31.37-.5.53a1.11,1.11,0,0,1-1.16.25.26.26,0,0,0-.37.29c0,.11-.36,0-.38,0a2.39,2.39,0,0,0-.43-.2c-.31-.09-.65,0-1-.11s-.45-.4-.71-.55a.8.8,0,0,0-.78,0,.25.25,0,0,0-.05.39l.53.5s.56.53.43.56a.25.25,0,0,0,.06.49h.07l.76-.07a3.8,3.8,0,0,1,.82-.08c.2,0,.3.3.5.39a.86.86,0,0,0,.57,0c.45-.14.76-.58,1.21-.75a2.14,2.14,0,0,1,.65-.16v.38h0a2.94,2.94,0,0,0-.39.4,2.2,2.2,0,0,1-.65.44,4.79,4.79,0,0,1-1.45.34,5.57,5.57,0,0,1-.91.06,1.85,1.85,0,0,1-.82-.3,4.29,4.29,0,0,0-1.5-.54c-.26,0-.34.36-.13.47s.57.33.84.5.67.41.64.83a.25.25,0,0,0,.37.22,2.5,2.5,0,0,1,1.53-.18,1.24,1.24,0,0,1,.72.26c.13.11.22.21.41.19s.29-.17.37-.33a.45.45,0,0,1,.52-.29c.17,0,.32,0,.48,0v.53a2.22,2.22,0,0,0-.5-.1.76.76,0,0,0-.48.17.56.56,0,0,0-.14.2c-.07.16,0,.18-.24.2a14.54,14.54,0,0,1-4.06.1.25.25,0,0,0-.13.48c.5.21,1,.39,1.54.59a1.66,1.66,0,0,0,1.23.19c.3-.11.5-.4.82-.47.11,0,.74-.19.84-.07s-.1.46-.12.57a.28.28,0,0,0,0,.09,3.27,3.27,0,0,0-.44,0,13.82,13.82,0,0,0-1.4.52,5.27,5.27,0,0,1-3-.15l-.06,0c-.26-.1-.44.33-.19.46a.54.54,0,0,1,.12.09.18.18,0,0,1,.05.07h0a3.65,3.65,0,0,1-.55.13l-.72.14h-.07c-.28.05-.21.5.07.49a7.85,7.85,0,0,1,1,0c.1,0,.43,0,.49.08a1.46,1.46,0,0,0-.06.23l-.09.19c-.14.24.21.53.39.3l0,0a5.61,5.61,0,0,1,.64-.65,1,1,0,0,1,.47-.28.76.76,0,0,1,0,.16,1,1,0,0,0,.05.46.26.26,0,0,0,.42.11,4.8,4.8,0,0,1,2.1-1A4.91,4.91,0,0,0,32.64,44a.25.25,0,0,0,.41.24,7.06,7.06,0,0,1,2.17-1.71h0v.57a.49.49,0,0,0-.41-.11.72.72,0,0,0-.43.41A2.73,2.73,0,0,1,34,44a2.45,2.45,0,0,1-1.3.75h-.06c-.3.06-.2.47.06.49h.07a2.45,2.45,0,0,0,1-.14,2.48,2.48,0,0,0,.44-.2,5.24,5.24,0,0,1,.51-.3.25.25,0,0,0,.46.13l.05-.06V47c0,.32,0,.66,0,1v0a.25.25,0,0,0,.5,0V44.53c.4.21.77.47,1.18.65.15.06.4,0,.38-.22s.17,0,.26,0a1.35,1.35,0,0,0,.34.11.44.44,0,0,0,.5-.31.25.25,0,0,0-.17-.31,2.88,2.88,0,0,1-.82-.37,8.75,8.75,0,0,0-1-.46,1,1,0,0,0-.69,0v-.11a4.07,4.07,0,0,0,.58-.51c.38-.34.81-.13,1.19.11a6.47,6.47,0,0,0,1,.58c.25.11.61.25.86.07s.18-.28.4-.21a4.94,4.94,0,0,1,.68.36c.2.1.41.23.63.13s.22-.28.34-.43a1.91,1.91,0,0,1,.78-.49c.24-.1.24-.52-.07-.5a14.07,14.07,0,0,1-1.59,0,14.4,14.4,0,0,1-2.84-.47,6.94,6.94,0,0,0-1.94-.34v-.23l.22-.11a1.92,1.92,0,0,0,.44-.37c.06-.07.14-.23.23-.26s.3.06.4.11a2.48,2.48,0,0,0,1.14.47,1.5,1.5,0,0,0,.55-.19,1.17,1.17,0,0,1,1,.17c.17.08.46-.06.37-.28-.18-.44.52-.36.73-.3l1.05.35a.25.25,0,0,0,.28-.37,2.12,2.12,0,0,0-.63-.56c-.13-.1-.1-.11-.06-.26a.82.82,0,0,0,0-.49.26.26,0,0,0-.37-.15,7.89,7.89,0,0,1-2,.84,3.16,3.16,0,0,1-1.06.09,3.5,3.5,0,0,1-.9-.23,1.77,1.77,0,0,0-1.41,0V40ZM39,36.74a1.22,1.22,0,0,1,.85-.1,4,4,0,0,0-.65.45.37.37,0,0,1-.42.08l-.22-.1a1.69,1.69,0,0,0-.39-.08A1.93,1.93,0,0,0,39,36.74Zm.65-1.39a.87.87,0,0,1-.15.13.78.78,0,0,1-.48,0Zm-2.72-.16c.13.05.25.12.38.18a1.5,1.5,0,0,1-.29-.06,1.38,1.38,0,0,1-.45-.27Zm2.56-1.62a1.23,1.23,0,0,1,.57,0,1.43,1.43,0,0,0,.29,0,.08.08,0,0,0,0,0s0,.09,0,.09a.67.67,0,0,1-.17-.06,3.15,3.15,0,0,0-.42-.09,1.84,1.84,0,0,0-.47,0Zm-.74.26a.21.21,0,0,0-.05.15,2.66,2.66,0,0,1-.56-.12A1.8,1.8,0,0,0,38.7,33.83Zm-1.19-4.12a1.37,1.37,0,0,1,.77-.48h0a.25.25,0,0,0,.1.3.05.05,0,0,0,0,0,4.7,4.7,0,0,0-.88.27l-.37.17Zm-1.77-3.86a1.61,1.61,0,0,1,.69,0l.19.05a.27.27,0,0,0-.12.09c-.08.1,0,.14-.18.12a.87.87,0,0,1-.19-.1.74.74,0,0,0-.39-.07Zm0,1.52a5.34,5.34,0,0,1,1,.22.26.26,0,0,0-.15.17.92.92,0,0,0-.23-.09,3.51,3.51,0,0,0-.58-.14Zm0,4.38c.57,0,1.09-.41,1.65-.44a1.38,1.38,0,0,1,.49.1l-.6.07a3.18,3.18,0,0,0-1,.16l-.57.22Zm0,.73.91.11-.91.21Zm0,.94a3.8,3.8,0,0,0,.58.15,2,2,0,0,1-.44.33l-.14.05Zm0,3.1a2.7,2.7,0,0,1,.41.08A9.51,9.51,0,0,0,37.7,37a5.45,5.45,0,0,0-.9.15,1.11,1.11,0,0,1-.3.08c-.11,0-.24-.19-.32-.25a1.05,1.05,0,0,0-.44-.18ZM39,38.73l0,0s-.06.11-.09.11-.22-.15-.27-.18l-.24-.15A3.55,3.55,0,0,0,39,38.73Zm-3.29.14a2.3,2.3,0,0,0,.39-.17,2.13,2.13,0,0,1,1.49-.43,3,3,0,0,1,.58.19.28.28,0,0,0-.13,0,1.33,1.33,0,0,0-.58.13.85.85,0,0,1-.66.08c-.43-.15-.64.16-.83.49a.74.74,0,0,1-.26.29ZM34.82,27a1,1,0,0,1-.61,0,.24.24,0,0,0,0-.23l0-.07a2.3,2.3,0,0,0,.4.23A.74.74,0,0,0,35,27,.33.33,0,0,0,34.82,27Zm-1.54,3.48a.25.25,0,0,0-.06-.24,1.73,1.73,0,0,0-.65-.39.24.24,0,0,0,0-.2,2.09,2.09,0,0,1,.29.16c.26.18.53.48.86.51A4.34,4.34,0,0,1,33.28,30.47ZM32,32.52a3.3,3.3,0,0,0-.31-.51l.21.09.47.13A1,1,0,0,0,32,32.52Zm1.54-.08a.43.43,0,0,1-.43-.11l.54.06ZM32,34.6a1.15,1.15,0,0,0-.14-.17l.25,0Zm-.83,2a.59.59,0,0,0-.07-.25l-.06-.1c.37.13.77,0,1.11.18l.16.07A11.21,11.21,0,0,0,31.14,36.62Zm2.22.26c-.32.18-.39,0-.6-.2a.57.57,0,0,0,.31,0,.54.54,0,0,0,.29-.24,1.63,1.63,0,0,0,.76,0C33.86,36.52,33.64,36.72,33.36,36.88ZM31.3,38.73a.88.88,0,0,0-.11-.24,2,2,0,0,0,.62.13A2.21,2.21,0,0,0,31.3,38.73Zm1,2.13a.85.85,0,0,1-.69-.09l-.25-.09c.43,0,.86,0,1.29-.07A1.48,1.48,0,0,1,32.32,40.86Zm-2.06,1.87a3,3,0,0,0-.54.41.49.49,0,0,0-.27-.26.36.36,0,0,0,.2-.26.41.41,0,0,0,0-.11,5.34,5.34,0,0,0,.8.13Zm6.33,1.53.42.22a.68.68,0,0,0-.12.12c-.3-.15-.58-.33-.86-.49A.91.91,0,0,1,36.59,44.26Zm-1.35-2.94a1.41,1.41,0,0,1-.22.06l-.36,0,.58-.43ZM33.92,28.65h-.08l.15,0A.11.11,0,0,1,33.92,28.65Zm.93-.33a2.2,2.2,0,0,0-.37.06,2.59,2.59,0,0,1,.61-.33l.15,0v.26Zm-.38,1.77-.25.06a.48.48,0,0,0,.12-.22,1,1,0,0,0,.9-.08v.23A1.82,1.82,0,0,0,34.47,30.09Zm.69,1.4.08-.07v.13l-.11,0ZM34.33,33l.06-.64c.29,0,.58-.11.85-.17v.4A2.36,2.36,0,0,0,34.33,33Zm.91,1.51v0l-.06,0Zm-.64,1.66a2.36,2.36,0,0,0,.42-.36l.22-.25V36A2.41,2.41,0,0,0,34.6,36.13Zm.49,2.36a3.09,3.09,0,0,0-.68,0,.76.76,0,0,0-.61.54l-.1-.09a2.14,2.14,0,0,0-1.24-.32h0a4.21,4.21,0,0,0,2.69-1l.07-.07v.9Zm-.55,1.66c.06-.13,0-.22.19-.24a1.86,1.86,0,0,1,.41.08h.1v.39c-.22.15-.43.31-.64.47a.47.47,0,0,0-.26-.5A.41.41,0,0,0,34.54,40.15ZM35,42.09a5.47,5.47,0,0,0-1.18.75,1.5,1.5,0,0,1,.19-.25c.12-.14.06-.45-.18-.42a5.52,5.52,0,0,0-2.63,1,.44.44,0,0,0-.17-.48l0,0a6.36,6.36,0,0,0,.87-.06,5,5,0,0,0,1.33-.44,4.63,4.63,0,0,1,1.57-.23l.51-.09V42Zm0,2.11a.61.61,0,0,0-.48-.06,2.11,2.11,0,0,0,.26-.4c0-.06.08-.23.14-.26h0l.08.07a.69.69,0,0,0,.19.1V44A1.75,1.75,0,0,0,35,44.2Zm5.68-1h.46l-.13.13a1.57,1.57,0,0,1-.12.19c-.1.1-.18,0-.31-.06s-.34-.21-.54-.3Zm-2.54-.37c.43.09.88.18,1.32.25-.16,0-.22.16-.36.25s0,0-.15,0a1.57,1.57,0,0,1-.28-.1,6.47,6.47,0,0,1-.81-.49Zm-1.78-.43a2.48,2.48,0,0,0-.62.5v-.54A2.18,2.18,0,0,1,36.36,42.43Zm4.56-2.34a.32.32,0,0,0,0,.14.63.63,0,0,0,0,.19,1.59,1.59,0,0,0-.57-.06Zm-1.15.5a.72.72,0,0,0-.2.31,1.53,1.53,0,0,0-.47-.11A4,4,0,0,0,39.77,40.59Zm-1.21.28-.09,0a.64.64,0,0,1-.64,0,2,2,0,0,1-.25-.14A2.73,2.73,0,0,0,38.56,40.87Zm-2.68-.26a1,1,0,0,1,.56-.11.61.61,0,0,0-.29.21,1.61,1.61,0,0,1-.41.38v-.4Z"/></g></svg>